<svg width="512" height="512" viewBox="0 0 512 512" fill="none" xmlns="http://www.w3.org/2000/svg">
  <!-- 圓角方形背景 -->
  <rect width="512" height="512" rx="64" fill="#3B82F6"/>
  
  <!-- 主要圖示：專案展示的概念 -->
  <!-- 文件夾基底 -->
  <path d="M128 160C128 142.3 142.3 128 160 128H224L256 160H416C433.7 160 448 174.3 448 192V384C448 401.7 433.7 416 416 416H160C142.3 416 128 401.7 128 384V160Z" fill="#FFFFFF" opacity="0.9"/>
  
  <!-- 展示螢幕 -->
  <rect x="192" y="200" width="192" height="128" rx="8" fill="#1E40AF"/>
  <rect x="200" y="208" width="176" height="96" rx="4" fill="#FFFFFF"/>
  
  <!-- 螢幕內容 - 專案卡片 -->
  <rect x="216" y="224" width="144" height="8" rx="4" fill="#3B82F6"/>
  <rect x="216" y="240" width="96" height="4" rx="2" fill="#94A3B8"/>
  <rect x="216" y="248" width="120" height="4" rx="2" fill="#94A3B8"/>
  
  <rect x="216" y="264" width="144" height="8" rx="4" fill="#10B981"/>
  <rect x="216" y="280" width="72" height="4" rx="2" fill="#94A3B8"/>
  
  <!-- 管理圖標 -->
  <circle cx="352" cy="352" r="24" fill="#FFFFFF"/>
  <path d="M344 352H360M352 344V360" stroke="#3B82F6" stroke-width="3" stroke-linecap="round"/>
  
  <!-- 設定齒輪 -->
  <g transform="translate(384, 336)">
    <circle cx="16" cy="16" r="6" fill="none" stroke="#FFFFFF" stroke-width="2"/>
    <path d="M16 0V4M16 28V32M0 16H4M28 16H32M4.9 4.9L7.75 7.75M24.25 24.25L27.1 27.1M4.9 27.1L7.75 24.25M24.25 7.75L27.1 4.9" stroke="#FFFFFF" stroke-width="2" stroke-linecap="round"/>
  </g>
  
  <!-- 點裝飾 -->
  <circle cx="160" cy="200" r="4" fill="#FFFFFF" opacity="0.6"/>
  <circle cx="448" cy="384" r="4" fill="#FFFFFF" opacity="0.6"/>
  <circle cx="128" cy="352" r="4" fill="#FFFFFF" opacity="0.6"/>
</svg>
